# xmcd CD database file
#
# Track frame offsets:
#	150
#	7141
#	19409
#	23091
#	52041
#	65048
#	72962
#	106138
#	114678
#	140223
#	166925
#	176962
#	182099
#	205255
#	235827
#	276850
#
# Disc length: 3926 seconds
#
# Revision: 0
# Processed by: cddbd v1.5.1PL0 Copyright (c) Steve Scherf et al.
# Submitted via: CDex 1.51
#
DISCID=f40f5410
DTITLE=Octet de Jean-Pierre Jullian - Opus Incertum on C...
DYEAR=2004
DGENRE=Jazz
TTITLE0=Mouvement 1 - 1
TTITLE1=Mouvement 1 - 2
TTITLE2=Mouvement 1 - 3
TTITLE3=Mouvement 1 - 4
TTITLE4=Mouvement 1 - 5
TTITLE5=Mouvement 2 - 1
TTITLE6=Mouvement 2 - 2
TTITLE7=Mouvement 2 - 3
TTITLE8=Mouvement 2 - 4
TTITLE9=Mouvement 2 - 5
TTITLE10=Mouvement 2 - 6
TTITLE11=Mouvement 2 - 7
TTITLE12=Mouvement 2 - 8
TTITLE13=Mouvement 2 - 9
TTITLE14=Mouvement 2 - 10
TTITLE15=Mouvement 2 - 11
EXTD=YEAR: 2004
EXTT0=
EXTT1=
EXTT2=
EXTT3=
EXTT4=
EXTT5=
EXTT6=
EXTT7=
EXTT8=
EXTT9=
EXTT10=
EXTT11=
EXTT12=
EXTT13=
EXTT14=
EXTT15=
PLAYORDER=
